<svg fill="#2E9BDB" xmlns="http://www.w3.org/2000/svg" xmlns:xlink="http://www.w3.org/1999/xlink" version="1.1" x="0px" y="0px" viewBox="0 0 100 100" enable-background="new 0 0 100 100" xml:space="preserve"><g><path d="M71.2,49.4v-2.2c0-0.8-0.6-1.4-1.4-1.4c-0.8,0-1.4,0.6-1.4,1.4v2.2c0,0.8,0.6,1.4,1.4,1.4C70.6,50.8,71.2,50.1,71.2,49.4z"/><path d="M62.4,48.8c0.2,0.1,0.5,0.2,0.7,0.2c0.5,0,0.9-0.2,1.2-0.7l1.1-1.9c0.4-0.7,0.2-1.5-0.5-1.9c-0.7-0.4-1.5-0.2-1.9,0.5   l-1.1,1.9C61.5,47.5,61.7,48.4,62.4,48.8z"/><path d="M59.3,40.3l-1.9,1.1c-0.7,0.4-0.9,1.2-0.5,1.9c0.3,0.4,0.7,0.7,1.2,0.7c0.2,0,0.5-0.1,0.7-0.2l1.9-1.1   c0.7-0.4,0.9-1.2,0.5-1.9C60.8,40.2,60,40,59.3,40.3z"/><path d="M54.9,35.9c0,0.8,0.6,1.4,1.4,1.4h2.2c0.8,0,1.4-0.6,1.4-1.4s-0.6-1.4-1.4-1.4h-2.2C55.6,34.5,54.9,35.1,54.9,35.9z"/><path d="M60.7,29.1L58.8,28c-0.7-0.4-1.5-0.2-1.9,0.5c-0.4,0.7-0.2,1.5,0.5,1.9l1.9,1.1c0.2,0.1,0.5,0.2,0.7,0.2   c0.5,0,0.9-0.2,1.2-0.7C61.6,30.3,61.4,29.4,60.7,29.1z"/><path d="M63,26.8c0.3,0.4,0.7,0.7,1.2,0.7c0.2,0,0.5-0.1,0.7-0.2c0.7-0.4,0.9-1.2,0.5-1.9l-1.1-1.9c-0.4-0.7-1.2-0.9-1.9-0.5   s-0.9,1.2-0.5,1.9L63,26.8z"/><path d="M77.2,23c-0.7-0.4-1.5-0.2-1.9,0.5l-1.1,1.9c-0.4,0.7-0.2,1.5,0.5,1.9c0.2,0.1,0.5,0.2,0.7,0.2c0.5,0,0.9-0.2,1.2-0.7   l1.1-1.9C78.1,24.3,77.9,23.4,77.2,23z"/><path d="M80.8,28l-1.9,1.1c-0.7,0.4-0.9,1.2-0.5,1.9c0.3,0.4,0.7,0.7,1.2,0.7c0.2,0,0.5-0.1,0.7-0.2l1.9-1.1   c0.7-0.4,0.9-1.2,0.5-1.9C82.3,27.8,81.4,27.6,80.8,28z"/><path d="M79.7,35.9c0,0.8,0.6,1.4,1.4,1.4h2.2c0.8,0,1.4-0.6,1.4-1.4s-0.6-1.4-1.4-1.4h-2.2C80.3,34.5,79.7,35.1,79.7,35.9z"/><path d="M78.9,42.8l1.9,1.1C81,44,81.2,44,81.5,44c0.5,0,0.9-0.2,1.2-0.7c0.4-0.7,0.2-1.5-0.5-1.9l-1.9-1.1   c-0.7-0.4-1.5-0.2-1.9,0.5C78,41.5,78.2,42.4,78.9,42.8z"/><path d="M74.8,44.5c-0.7,0.4-0.9,1.2-0.5,1.9l1.1,1.9c0.3,0.4,0.7,0.7,1.2,0.7c0.2,0,0.5-0.1,0.7-0.2c0.7-0.4,0.9-1.2,0.5-1.9   L76.7,45C76.3,44.3,75.4,44.1,74.8,44.5z"/><path d="M96.8,11.2c-0.5-0.5-1.1-0.7-1.7-0.7h-70c-1.2,0-2.2,0.8-2.4,1.9c-0.3,1.6,0.9,2.9,2.4,2.9h42.9v12.9   c-3.5,0.9-6.1,4.1-6,7.8c0.1,4.1,3.5,7.5,7.6,7.7c4.5,0.2,8.2-3.4,8.2-7.9c0-3.7-2.5-6.8-6-7.6V15.4h20.9v69.2H74.5v-7.2   c0-1-0.8-1.7-1.7-1.7h-15v-8.9c0-1-0.8-1.7-1.7-1.7H41v-8.9c0-1-0.8-1.7-1.7-1.7h-15v-8.9c0-1-0.8-1.7-1.7-1.7H7.4V33.8   c0-1.2-0.8-2.2-1.9-2.4c-1.6-0.3-2.9,0.9-2.9,2.4V87c0,1.3,1.1,2.4,2.4,2.4h90.1c1.3,0,2.4-1.1,2.4-2.4V13   C97.5,12.3,97.2,11.7,96.8,11.2z"/></g></svg>