<svg fill="#ffffff" xmlns="http://www.w3.org/2000/svg" viewBox="0 0 32 32" x="0px" y="0px"><title>Summer, holiday, vacation, Barbecue, bbq, cook, grill</title><g><path d="M10.25,7.41a2.68,2.68,0,0,1,0-3.82c.24-.28.3-.35.3-.59a1,1,0,0,1,2,0,2.67,2.67,0,0,1-.8,1.91c-.24.28-.3.35-.3.59s.06.31.3.59A2.67,2.67,0,0,1,12.55,8a1,1,0,0,1-2,0C10.55,7.76,10.49,7.69,10.25,7.41ZM20.55,8a1,1,0,0,0,2,0,2.67,2.67,0,0,0-.8-1.91c-.24-.28-.3-.35-.3-.59s.06-.31.3-.59A2.67,2.67,0,0,0,22.55,3a1,1,0,0,0-2,0c0,.24-.06.31-.3.59a2.68,2.68,0,0,0,0,3.82C20.49,7.69,20.55,7.76,20.55,8Zm-5,0a1,1,0,0,0,2,0,2.67,2.67,0,0,0-.8-1.91c-.24-.28-.3-.35-.3-.59s.06-.31.3-.59A2.67,2.67,0,0,0,17.55,3a1,1,0,0,0-2,0c0,.24-.06.31-.3.59a2.68,2.68,0,0,0,0,3.82C15.49,7.69,15.55,7.76,15.55,8ZM16,22a10,10,0,0,0,9.56-7.07H6.44A10,10,0,0,0,16,22Zm9-12H7a1,1,0,0,0-1,1v1c0,.31,0,.63,0,.93H26c0-.3,0-.62,0-.93V11A1,1,0,0,0,25,10ZM19.62,22.37a10,10,0,0,1-1.95.49L18.09,24H13.91l.42-1.14a10,10,0,0,1-1.95-.49l-2.32,6.28a1,1,0,0,0,.59,1.29A1.07,1.07,0,0,0,11,30a1,1,0,0,0,.94-.65L13.17,26h5.66l1.23,3.35A1,1,0,0,0,21,30a1.07,1.07,0,0,0,.35-.06,1,1,0,0,0,.59-1.29ZM5.41,15H5a1,1,0,0,0,0,2H6.21a9.93,9.93,0,0,1-.73-1.78Z"/></g></svg>