<svg fill="#ffffff" xmlns="http://www.w3.org/2000/svg" version="1.1" viewBox="-5.0 -5.0 110.0 110.0">
 <g>
  <path d="m74.512 75.09c-1.75 0-3.1797 1.4219-3.1797 3.1719v9.1992s0.078125-0.070313 0.12109-0.10938l12.152-12.152s0.058593-0.070313 0.10156-0.10938z"/>
  <path d="m71.691 21.512c0.42188 0 0.80859-0.12891 1.1406-0.35156 0.53906-0.35938 0.89844-0.98047 0.89844-1.6797v-7.4492c0-0.42188-0.12891-0.80859-0.35156-1.1406-0.35938-0.53906-0.98047-0.89844-1.6797-0.89844h-0.75c-1.1211 0-2.0312 0.91016-2.0312 2.0312v7.4492c0 1.1094 0.91016 2.0312 2.0312 2.0312h0.75z"/>
  <path d="m86.262 23.352c0-1.6289-0.67969-3.1016-1.7695-4.1602-1.0508-1.0195-2.4688-1.6484-4.0391-1.6484h-3.1406v1.9297c0 1.0117-0.28906 1.9492-0.76172 2.7695-0.96875 1.6914-2.7695 2.8398-4.8516 2.8398h-0.76172c-3.0898 0-5.6094-2.5195-5.6094-5.6094v-1.9297h-9.3398v1.9297c0 0.76953-0.16016 1.5117-0.44141 2.1797-0.050781 0.10938-0.12109 0.21094-0.17188 0.30859-0.10938 0.21875-0.21094 0.44141-0.35156 0.64062-1.0117 1.4883-2.7188 2.4805-4.6484 2.4805h-0.76172c-1.5508 0-2.9492-0.62891-3.9609-1.6406-1.0195-1.0195-1.6406-2.4219-1.6406-3.9609v-1.9297h-9.3398v1.9297c0 3.0898-2.5195 5.6094-5.6094 5.6094h-0.76172c-1.9297 0-3.6406-0.98047-4.6484-2.4688-0.60156-0.89844-0.96094-1.9688-0.96094-3.1289v-1.9297h-3.1406c-1.8789 0-3.5508 0.92188-4.6094 2.3086-0.73828 0.98047-1.1992 2.1797-1.1992 3.4883v8.5117h72.512v-8.5117z"/>
  <path d="m86.262 35.441h-72.523v48.75c0 3.1992 2.6094 5.8008 5.8086 5.8008h45.5c0.92188 0 1.8281-0.14063 2.6992-0.41016v-11.328c0-3.7305 3.0195-6.75 6.7617-6.75h11.328c0.26172-0.85938 0.41016-1.7695 0.41016-2.6992v-33.371zm-17.648 13.738-0.98047 0.78125c-0.71875 0.55078-1.4219 1.1094-2.1094 1.6797-4.1094 3.4492-7.5508 7.9219-11.141 14.469-0.78125 1.4102-1.5781 2.75-2.3984 3.9609-1.2383 1.8594-2.8906 2.7891-4.9102 2.7891-0.26953 0-0.53906-0.011719-0.82031-0.050781-1.0391-0.12109-1.7109-0.64062-2.0195-1.5898-1.0391-3.1016-2.8281-5.4609-5.4688-7.1797-0.80859-0.51172-1.2695-1.2188-1.2891-1.9688-0.039062-0.73047 0.35156-1.4414 1.0703-1.9883 1.1211-0.85156 2.3789-1.3281 3.2383-1.5586 1.5195-0.42969 2.9609 0.10156 3.8789 1.4219 0.69922 1 1.3516 2.0508 1.9805 3.0781l0.67969 1.0898c3.9805-5.6484 8.4805-9.9805 13.762-13.23 1.1484-0.69922 2.3789-1.3086 3.5508-1.8984 0.41016-0.19922 0.80078-0.39062 1.2109-0.60156 0.41016-0.21094 0.89844-0.30078 1.4297-0.26953 0.25 0.011719 0.46875 0.17969 0.53906 0.41016 0.078125 0.23828 0 0.5-0.19141 0.66016z"/>
  <path d="m47.59 12.031v7.4492c0 0.62109 0.28125 1.1719 0.71875 1.5391 0.35156 0.30078 0.80859 0.48828 1.3086 0.48828h0.75c0.62891 0 1.1797-0.28906 1.5586-0.73828 0.28906-0.35156 0.48047-0.80078 0.48047-1.2891v-7.4492c0-0.14062-0.011719-0.28125-0.039062-0.41016-0.19141-0.92969-1.0117-1.6211-1.9883-1.6211h-0.75c-0.83984 0-1.5586 0.51172-1.8711 1.2383-0.10156 0.23828-0.16016 0.51172-0.16016 0.78906z"/>
  <path d="m29.059 10h-0.76172c-0.60156 0-1.1406 0.26953-1.5117 0.69922-0.30859 0.35938-0.51172 0.82031-0.51172 1.3281v7.4492c0 0.66016 0.32031 1.2383 0.80859 1.6094 0.33984 0.26172 0.75 0.42187 1.2109 0.42187h0.76172c1.1211 0 2.0312-0.92187 2.0312-2.0312v-7.4492c0-1.1211-0.91016-2.0312-2.0312-2.0312z"/>
 </g></svg>