<svg fill="white" xmlns="http://www.w3.org/2000/svg" xmlns:xlink="http://www.w3.org/1999/xlink" xmlns:serif="http://www.serif.com/" viewBox="0 0 64 64" version="1.1" xml:space="preserve" style="" x="0px" y="0px" fill-rule="evenodd" clip-rule="evenodd" stroke-linejoin="round" stroke-miterlimit="2"><g transform="matrix(1,0,0,1,-288,-96)"><g transform="matrix(7.71429,0,0,1,-2148.57,0)"><path d="M323.37,131L316.5,131C316.428,131 316.37,130.552 316.37,130L316.37,125C316.37,123.343 316.544,122 316.759,122L320.567,122C320.62,121.058 320.648,120.058 320.652,119L319.352,119C319.28,119 319.222,118.552 319.222,118L319.222,101C319.222,100.448 319.28,100 319.352,100L323.241,100C323.312,100 323.37,100.448 323.37,101L323.37,118C323.37,118.552 323.312,119 323.241,119L321.946,119C321.953,120.149 321.977,121.16 322.024,122L323.241,122C323.456,122 323.63,123.343 323.63,125L323.63,155C323.63,155.552 323.572,156 323.5,156C323.428,156 323.37,155.552 323.37,155L323.37,131ZM320.911,119C320.908,120.045 320.886,121.045 320.845,122C320.995,122 321.598,122 321.749,122C321.714,121.114 321.693,120.109 321.687,119L320.911,119ZM316.629,154L316.5,154C316.428,154 316.37,153.552 316.37,153L316.37,142L319.352,142L319.352,153C319.352,153.552 319.294,154 319.222,154L319.092,154L319.092,154.903C319.093,154.984 319.093,155.067 319.091,155.151C319.085,155.471 319.066,155.618 319.06,155.668C319.023,155.988 318.981,156.033 318.945,155.995C318.918,155.965 318.883,155.875 318.856,155.575C318.854,155.549 318.835,155.368 318.833,155.006C318.832,154.881 318.832,154.439 318.833,154L316.889,154C316.889,154 316.889,155.067 316.887,155.151C316.881,155.471 316.862,155.618 316.856,155.668C316.819,155.988 316.778,156.033 316.741,155.995C316.714,155.965 316.68,155.875 316.653,155.575C316.65,155.549 316.631,155.368 316.629,155.006C316.629,154.881 316.629,154.439 316.629,154ZM317.926,147C317.783,147 317.667,147.896 317.667,149C317.667,150.104 317.783,151 317.926,151C318.069,151 318.185,150.104 318.185,149C318.185,147.896 318.069,147 317.926,147ZM319.352,131.5L319.352,140L316.37,140L316.37,131.118C316.405,131.356 316.45,131.5 316.5,131.5L319.352,131.5ZM317.926,135C317.783,135 317.667,135.896 317.667,137C317.667,138.104 317.783,139 317.926,139C318.069,139 318.185,138.104 318.185,137C318.185,135.896 318.069,135 317.926,135Z"/></g></g></svg>