<svg fill="#2E9BDB" xmlns="http://www.w3.org/2000/svg" data-name="Layer 1" viewBox="0 0 64 64" x="0px" y="0px"><title>icon-basic-set</title><path d="M7.64,25.44,31.29,38.05a1.5,1.5,0,0,0,1.41,0L56.36,25.44a1.5,1.5,0,0,0,0-2.65L32.71,10.18a1.49,1.49,0,0,0-1.41,0L7.64,22.79a1.5,1.5,0,0,0,0,2.65ZM32,13.2,52.47,24.12,32,35,11.53,24.12Z"/><path d="M54.95,30.68,32,42.92,9.05,30.68a1.5,1.5,0,0,0-1.41,2.65L31.29,45.94a1.5,1.5,0,0,0,1.41,0L56.36,33.32a1.5,1.5,0,0,0-1.41-2.65Z"/><path d="M54.95,38.56,32,50.8,9.05,38.56a1.5,1.5,0,1,0-1.41,2.65L31.29,53.82a1.5,1.5,0,0,0,1.41,0L56.36,41.21a1.5,1.5,0,1,0-1.41-2.65Z"/></svg>