<svg fill="white" xmlns="http://www.w3.org/2000/svg" xmlns:xlink="http://www.w3.org/1999/xlink" version="1.1" x="0px" y="0px" viewBox="0 0 100 100" style="enable-background:new 0 0 100 100;" xml:space="preserve"><path d="M88.7578125,37.5562134c1.6943359-1.6958008,1.6943359-4.4453125,0-6.1411133  c-0.6379395-0.6383667-1.4250488-1.0354614-2.2487793-1.1932373c0.7841797-1.6181641,0.5228271-3.6158447-0.8193359-4.9591064  c-1.3422852-1.3433228-3.3383789-1.6049194-4.9552002-0.8201294c-0.1575928-0.8244629-0.5545654-1.6121826-1.1922607-2.2504883  c-1.6945801-1.6958008-4.4417725-1.6958618-6.1362305,0c-3.6652832,3.6680908-3.7597656,9.6159058-0.4298096,13.8473511  c-7.0171509,6.942627-9.3920288,16.7901001-10.0994263,24.2470703H51.4950562v-7.8690796  c2.1083374,1.3424683,5.8309937,0.2791138,8.7331543-2.6253662c3.1690063-3.1716309,4.1536255-7.3284302,2.1991577-9.2844238  c-1.9544678-1.9560547-6.1079102-0.9705811-9.2769165,2.2009888c-0.6466675,0.6472168-1.1970215,1.3361816-1.6553955,2.0383911  v-5.7842407c1.859436-0.7098389,3.31427-2.6791992,3.7779541-5.1828003  c3.0148315,1.0684204,6.1070557,0.3841553,7.3849487-1.8311157c1.2779541-2.21521,0.3239746-5.2374878-2.1079712-7.3163452  c2.4319458-2.0787354,3.3859253-5.1010132,2.1079712-7.3162231c-1.2778931-2.215332-4.3701172-2.8995972-7.3849487-1.8311768  C54.6901245,12.3380127,52.5519409,10,49.9960327,10s-4.6940918,2.3380127-5.2769165,5.4851685  c-3.0148315-1.0684204-6.1070557-0.3841553-7.3850098,1.8311768c-1.2779541,2.21521-0.3239136,5.2374878,2.1079712,7.3162231  c-2.4318848,2.0788574-3.3859253,5.1011353-2.1079712,7.3163452c1.2779541,2.215271,4.3701782,2.8995361,7.3850098,1.8311157  c0.463623,2.5036621,1.9185181,4.4730835,3.7780762,5.1828613v5.7717896c-0.4567871-0.697937-1.0046997-1.3825684-1.647644-2.026001  c-3.1690063-3.1715698-7.3223877-4.1570435-9.2768555-2.2009888c-1.9544678,1.9559937-0.9699097,6.112793,2.1991577,9.2844238  c2.8986206,2.9009399,6.6155396,3.9651489,8.7253418,2.6300659v7.8643799H37.1804199  c-0.7073975-7.4569702-3.0822754-17.3045044-10.0994263-24.2470703c3.329834-4.2315063,3.2354126-10.1792603-0.4298096-13.8473511  c-1.694458-1.6958618-4.4417114-1.6958008-6.1361694,0c-0.6378174,0.6383057-1.034668,1.4260254-1.1923218,2.2504883  c-1.6168823-0.78479-3.612915-0.5231934-4.9551392,0.8201294c-1.3421631,1.3432617-1.6035156,3.3409424-0.819397,4.9591064  c-0.8237915,0.1577759-1.6108398,0.5548706-2.2487183,1.1932373c-1.694458,1.6958008-1.694458,4.4453125,0,6.1411133  c3.6088257,3.6117554,9.4245605,3.7555542,13.6387939,0.578186c2.5422974,2.505188,4.4231567,5.4520264,5.8033447,8.5380249  c-1.0272827-0.690979-2.269043-1.2614746-3.6567993-1.6303711c-4.3314819-1.1514282-8.4180298,0.0824585-9.1276245,2.7559814  s2.2265015,5.774353,6.5579834,6.9257812c3.5715332,0.9494629,6.9714355,0.274231,8.4540405-1.4897461  c0.605957,2.4578857,0.9824219,4.8588867,1.2017822,7.0524902H26.050354v13.9644775  C26.050354,82.9489136,33.0963135,90,41.7880249,90h16.4240112c8.6916504,0,15.7376709-7.0510864,15.7376709-15.7489624V60.2865601  h-8.0634766c0.2193604-2.1936035,0.5958252-4.5946045,1.2017822-7.0524902  c1.482605,1.7639771,4.8824463,2.439209,8.4539795,1.4897461c4.331543-1.1514282,7.2675781-4.2522583,6.5581055-6.9257812  c-0.7097168-2.6735229-4.7961426-3.9074097-9.1276855-2.7559814c-1.3876953,0.3688965-2.6295166,0.9393921-3.6567383,1.6303711  c1.380127-3.0859985,3.2609863-6.0328369,5.8032227-8.5380249C79.333252,41.3117676,85.1489258,41.1679688,88.7578125,37.5562134z   M45.1098022,24.6325684c0-2.7007446,2.1876831-4.8901367,4.8862305-4.8901367s4.8861694,2.1893921,4.8861694,4.8901367  c0,2.7008057-2.1876221,4.8902588-4.8861694,4.8902588S45.1098022,27.333374,45.1098022,24.6325684z"/></svg>