<svg xmlns="http://www.w3.org/2000/svg" viewBox="0 0 100 100" fill="none" x="0px" y="0px"><path d="M41.8325 13.3925C38.9457 19.659 38.0489 26.6597 39.2627 33.4515C40.4765 40.2433 43.7428 46.5 48.6214 51.3786C53.5 56.2572 59.7567 59.5235 66.5485 60.7373C73.3403 61.9511 80.341 61.0543 86.6075 58.1675C82.88 74.9525 67.9063 87.5 50 87.5C29.2888 87.5 12.5 70.7112 12.5 50C12.5 32.0937 25.0475 17.12 41.8325 13.3925V13.3925ZM73.115 13.5912L76.25 14.375V18.125L73.115 18.9088C71.7965 19.2385 70.5924 19.9203 69.6314 20.8814C68.6703 21.8424 67.9885 23.0465 67.6587 24.365L66.875 27.5H63.125L62.3413 24.365C62.0115 23.0465 61.3297 21.8424 60.3686 20.8814C59.4076 19.9203 58.2035 19.2385 56.885 18.9088L53.75 18.125V14.375L56.885 13.5912C58.2028 13.2609 59.4061 12.5788 60.3665 11.6178C61.3268 10.6568 62.0081 9.45303 62.3375 8.135L63.125 5H66.875L67.6587 8.135C67.9885 9.4535 68.6703 10.6576 69.6314 11.6186C70.5924 12.5797 71.7965 13.2615 73.115 13.5912V13.5912ZM91.865 32.3412L95 33.125V36.875L91.865 37.6587C90.5465 37.9885 89.3424 38.6703 88.3814 39.6314C87.4203 40.5924 86.7385 41.7965 86.4087 43.115L85.625 46.25H81.875L81.0913 43.115C80.7615 41.7965 80.0797 40.5924 79.1186 39.6314C78.1576 38.6703 76.9535 37.9885 75.635 37.6587L72.5 36.875V33.125L75.635 32.3412C76.9535 32.0115 78.1576 31.3297 79.1186 30.3686C80.0797 29.4076 80.7615 28.2035 81.0913 26.885L81.875 23.75H85.625L86.4087 26.885C86.7385 28.2035 87.4203 29.4076 88.3814 30.3686C89.3424 31.3297 90.5465 32.0115 91.865 32.3412Z" fill="white"/></svg>