<svg xmlns="http://www.w3.org/2000/svg" xmlns:xlink="http://www.w3.org/1999/xlink" version="1.1" x="0px" y="0px" viewBox="0 0 100 125" style="enable-background:new 0 0 100 100;" xml:space="preserve"><g><path d="M70,25H30L0,15v70l30-10h40l30,10V15L70,25z M12.5,75.563L5,78.062V52.5h7.5V75.563z M12.5,47.5H5V21.938l7.5,2.5V47.5z    M25,71.396l-7.5,2.5V52.5H25V71.396z M25,47.5h-7.5V26.104l7.5,2.499V47.5z M30,70V58.535l10-10L61.465,70H30z M70,70h-1.465   l-9.611-9.611L70,53.005V70z M70,46.966l-14.684,9.815L40,41.465l-10,10V30h40V46.966z M82.5,73.896l-7.5-2.5V52.5h7.5V73.896z    M82.5,47.5H75V28.604l7.5-2.499V47.5z M95,78.062l-7.5-2.499V52.5H95V78.062z M95,47.5h-7.5V24.438l7.5-2.5V47.5z M30,51.465   l10-10l15.316,15.316L70,46.966V30H30V51.465z M57.5,35c4.141,0,7.5,3.359,7.5,7.5S61.641,50,57.5,50S50,46.641,50,42.5   S53.359,35,57.5,35z"/></g><text x="0" y="115" fill="#000000" font-size="5px" font-weight="bold" font-family="'Helvetica Neue', Helvetica, Arial-Unicode, Arial, Sans-serif">Created by b farias</text><text x="0" y="120" fill="#000000" font-size="5px" font-weight="bold" font-family="'Helvetica Neue', Helvetica, Arial-Unicode, Arial, Sans-serif">from the Noun Project</text></svg>