<svg fill="#2E9BDB" xmlns="http://www.w3.org/2000/svg" xmlns:xlink="http://www.w3.org/1999/xlink" version="1.1" x="0px" y="0px" viewBox="0 0 55 55" style="enable-background:new 0 0 64 64;" xml:space="preserve"><g><path d="M17.2,18.6h-1.4v4.9h1.4c1.3,0,2.4-1.1,2.4-2.4C19.7,19.6,18.6,18.6,17.2,18.6z"/><path d="M24.7,30.4V15.6c0-0.6-0.4-1-1-1h-12c-0.5,0-1,0.4-1,1v14.8c0,0.5,0.5,1,1,1h5c0,0,0,0.1,0,0.1v11.7c0,0.6,0.4,1,1,1   s1-0.4,1-1V31.5c0,0,0-0.1,0-0.1h5C24.3,31.4,24.7,31,24.7,30.4z M17.2,25.4h-1.4v3.1c0,0.5-0.5,1-1,1c-0.6,0-1-0.5-1-1V17.6   c0-0.5,0.4-1,1-1h2.4c2.4,0,4.4,2,4.4,4.4S19.7,25.4,17.2,25.4z"/><path d="M49.7,25.2c-0.4-1.5-1.7-2.5-3.2-2.5H32.9c-1.5,0-2.8,1-3.2,2.5l-0.8,3.4h21.6L49.7,25.2z"/><path d="M26.1,35v4.3h2.8v3.3c0,0.6,0.4,1,1,1h4.2c0.6,0,1-0.4,1-1v-3.3h9.3v3.3c0,0.6,0.4,1,1,1h4.2c0.6,0,1-0.4,1-1v-3.3h2.8V35   c0-2.4-2-4.4-4.4-4.4H30.5C28.1,30.6,26.1,32.5,26.1,35z"/><rect x="9.6" y="45.6" width="44.8" height="3.8"/></g></svg>