<svg fill="white" xmlns="http://www.w3.org/2000/svg" version="1.1" viewBox="-5.0 -5.0 110.0 110.0">
 <g>
  <path d="m6.25 23.438c-1.7266 0-3.125 1.3984-3.125 3.125s1.3984 3.125 3.125 3.125h18.75c1.7266 0 3.125-1.3984 3.125-3.125s-1.3984-3.125-3.125-3.125z"/>
  <path d="m38.613 23.438c-2.9258 0-5.6016 1.3594-7.3359 3.5586 0.16406 0.097656 0.31641 0.20703 0.46484 0.33594l21.309 18.578c1.2188 1.0625 3.1133 1.2852 4.6172 0.47656l36.164-19.453c0.23828-0.125 0.48438-0.21875 0.73828-0.28125-1.6914-1.9492-4.1797-3.2148-7.0508-3.2148z"/>
  <path d="m19.164 64.441 9.6016-31.41 20.18 17.59c3.2148 2.8047 7.9297 3.2891 11.684 1.2695l36.164-19.449c0.023437-0.015625 0.050781-0.027344 0.074219-0.042968 0.046874 1.0352-0.082032 2.0977-0.40625 3.1602l-10.508 34.375c-1.2031 3.9336-4.8242 6.6289-8.9414 6.6289h-48.906c-6.3047 0-10.777-6.1133-8.9414-12.121z"/>
  <path d="m3.125 42.188c0-1.7266 1.3984-3.125 3.125-3.125h12.5c1.7266 0 3.125 1.3984 3.125 3.125s-1.3984 3.125-3.125 3.125h-12.5c-1.7266 0-3.125-1.3984-3.125-3.125z"/>
  <path d="m6.25 54.688c-1.7266 0-3.125 1.3984-3.125 3.125s1.3984 3.125 3.125 3.125h6.25c1.7266 0 3.125-1.3984 3.125-3.125s-1.3984-3.125-3.125-3.125z"/>
 </g></svg>