<svg fill="#ffffff" xmlns:dc="http://purl.org/dc/elements/1.1/" xmlns:cc="http://creativecommons.org/ns#" xmlns:rdf="http://www.w3.org/1999/02/22-rdf-syntax-ns#" xmlns:svg="http://www.w3.org/2000/svg" xmlns="http://www.w3.org/2000/svg" version="1.1" viewBox="0 0 16.933334 16.933334" x="0px" y="0px"><g transform="translate(0,-118.53333)" style="" display="inline"><path transform="matrix(0.26458333,0,0,0.26458333,0,118.53333)" d="M 6 14.498047 L 6 16.498047 L 6 49.501953 L 40.998047 49.501953 L 40.998047 34.5 C 40.998047 34.5 41 34.5 41 34.5 L 41 29.5 L 41 14.5 L 40.998047 14.5 L 40.998047 14.498047 L 6 14.498047 z M 47.996094 14.498047 L 47.996094 17 L 47.996094 19.501953 L 45.501953 19.501953 L 43 19.501953 L 43 24.5 L 45.501953 24.5 L 47.996094 24.5 L 47.996094 27.001953 L 47.996094 29.498047 L 53.001953 29.498047 L 53.001953 27.001953 L 53.001953 24.5 L 55.496094 24.5 L 58 24.5 L 58 19.501953 L 55.496094 19.501953 L 53.001953 19.501953 L 53.001953 17 L 53.001953 14.498047 L 47.996094 14.498047 z M 10.001953 18.498047 L 21.400391 18.498047 C 22.990318 26.335101 29.161516 32.508242 36.998047 34.099609 L 36.998047 45.501953 L 10.001953 45.501953 L 10.001953 18.498047 z M 11.988281 21.001953 L 11.988281 25.001953 L 13.988281 25.001953 L 17.988281 25.001953 L 19.990234 25.001953 L 19.990234 21.001953 L 17.988281 21.001953 L 13.988281 21.001953 L 11.988281 21.001953 z M 20.728516 27.769531 L 19 28.767578 L 15.539062 30.767578 L 13.802734 31.771484 L 15.804688 35.232422 L 17.539062 34.228516 L 21 32.228516 L 22.728516 31.232422 L 20.728516 27.769531 z M 24.757812 33.255859 L 23.753906 34.990234 L 21.761719 38.451172 L 20.757812 40.1875 L 24.21875 42.1875 L 25.222656 40.453125 L 27.224609 36.990234 L 28.220703 35.255859 L 24.757812 33.255859 z M 30.988281 36.001953 L 30.988281 38.001953 L 30.988281 42.001953 L 30.988281 44.003906 L 34.990234 44.003906 L 34.990234 42.001953 L 34.990234 38.001953 L 34.990234 36.001953 L 30.988281 36.001953 z " style="color:#000000;font-style:normal;font-variant:normal;font-weight:normal;font-stretch:normal;font-size:medium;line-height:normal;font-family:sans-serif;font-variant-ligatures:normal;font-variant-position:normal;font-variant-caps:normal;font-variant-numeric:normal;font-variant-alternates:normal;font-feature-settings:normal;text-indent:0;text-align:start;text-decoration:none;text-decoration-line:none;text-decoration-style:solid;text-decoration-color:#000000;letter-spacing:normal;word-spacing:normal;text-transform:none;writing-mode:lr-tb;direction:ltr;text-orientation:mixed;dominant-baseline:auto;baseline-shift:baseline;text-anchor:start;white-space:normal;shape-padding:0;clip-rule:nonzero;display:inline;overflow:visible;visibility:visible;opacity:1;isolation:auto;mix-blend-mode:normal;color-interpolation:sRGB;color-interpolation-filters:linearRGB;solid-color:#000000;solid-opacity:1;vector-effect:none;fill:#ffffff;fill-opacity:1;fill-rule:evenodd;stroke:none;stroke-width:3.99999976;stroke-linecap:square;stroke-linejoin:miter;stroke-miterlimit:4;stroke-dasharray:none;stroke-dashoffset:0;stroke-opacity:1;paint-order:fill markers stroke;color-rendering:auto;image-rendering:auto;shape-rendering:auto;text-rendering:auto;enable-background:accumulate"/></g><text x="0" y="31.933332" fill="#000000" font-size="5px" font-weight="bold" font-family="'Helvetica Neue', Helvetica, Arial-Unicode, Arial, Sans-serif">Created by Warunk Icon</text><text x="0" y="36.933332" fill="#000000" font-size="5px" font-weight="bold" font-family="'Helvetica Neue', Helvetica, Arial-Unicode, Arial, Sans-serif">from the Noun Project</text></svg>