<svg xmlns="http://www.w3.org/2000/svg" xmlns:xlink="http://www.w3.org/1999/xlink" viewBox="0 0 18 18" version="1.1" x="0px" y="0px"><g stroke="none" stroke-width="1" fill="none" fill-rule="evenodd"><g transform="translate(-181.000000, -2181.000000)" fill="#2E9BDB"><g transform="translate(40.000000, 2080.000000)"><path d="M157,115 L157,105 C158.104,105 159,104.105 159,103 C159,101.896 158.104,101 157,101 C155.895,101 155,101.896 155,103 L145,103 C145,101.896 144.105,101 143,101 C141.895,101 141,101.896 141,103 C141,104.105 141.895,105 143,105 L143,115 C141.895,115 141,115.896 141,117 C141,118.105 141.895,119 143,119 C144.105,119 145,118.105 145,117 L155,117 C155,118.105 155.895,119 157,119 C158.104,119 159,118.105 159,117 C159,115.896 158.104,115 157,115 L157,115 Z M144,104.722 C144.3,104.548 144.548,104.3 144.723,104 L147,104 L144,107 L144,104.722 L144,104.722 Z M144,108 L148,104 L150,104 L144,110 L144,108 L144,108 Z M144,111 L151,104 L153,104 L144,113 L144,111 L144,111 Z M144.408,115.592 C144.287,115.47 144.15,115.365 144,115.277 L144,114 L154,104 L155.277,104 C155.365,104.15 155.47,104.287 155.592,104.408 L144.408,115.592 L144.408,115.592 Z M156,115.277 C155.7,115.452 155.452,115.7 155.277,116 L154,116 L156,114 L156,115.277 L156,115.277 Z M156,113 L153,116 L151,116 L156,111 L156,113 L156,113 Z M156,110 L150,116 L148,116 L156,108 L156,110 L156,110 Z M156,107 L147,116 L145,116 L156,105 L156,107 L156,107 Z"/></g></g></g></svg>