<svg fill="#2E9BDB" xmlns="http://www.w3.org/2000/svg" xmlns:xlink="http://www.w3.org/1999/xlink" version="1.1" x="0px" y="0px" viewBox="0 0 100 100" enable-background="new 0 0 100 100" xml:space="preserve"><path d="M83,44V23c0-1.657-1.343-3-3-3H20c-1.657,0-3,1.343-3,3v21c-4.963,0-9,4.037-9,9v24c0,1.657,1.343,3,3,3  s3-1.343,3-3v-3h72v3c0,1.657,1.343,3,3,3s3-1.343,3-3V53C92,48.037,87.963,44,83,44z M23,26h54v18h-3v-6c0-3.309-2.691-6-6-6h-9  c-3.309,0-6,2.691-6,6v6h-6v-6c0-3.309-2.691-6-6-6h-9c-3.309,0-6,2.691-6,6v6h-3V26z M59,44v-6h9v6H59z M32,44v-6h9v6H32z M14,53  c0-1.654,1.346-3,3-3h66c1.654,0,3,1.346,3,3v15H14V53z"/></svg>