<svg fill="#ffffff" xmlns="http://www.w3.org/2000/svg" version="1.1" viewBox="-5.0 -5.0 110.0 110.0">
 <path d="m50 10c-22.051 0-40 17.949-40 40s17.949 40 40 40 40-17.949 40-40-17.941-40-40-40zm17.98 54.371c-1.1602 1.1914-2.3398 2.3789-3.5391 3.5391-0.96094 0.94141-2.1797 1.1484-3.4609 1.0586-2.5-0.17188-4.75-1.1484-6.9102-2.3203-4.8086-2.6211-8.9297-6.1289-12.699-10.051-3.3398-3.4805-6.2383-7.2812-8.3789-11.609-0.82813-1.6914-1.5508-3.4297-1.8203-5.3008-0.26172-1.7812-0.039063-3.4219 1.4414-4.7109 0.98047-0.85156 1.8516-1.8398 2.7812-2.75 1.6016-1.5781 3.6602-1.5898 5.25-0.019531 1.4219 1.3789 2.8086 2.7812 4.1914 4.1797 1.5117 1.5586 1.5117 3.6289 0 5.1914-0.46094 0.48047-0.91016 0.98047-1.4297 1.4219-0.96094 0.80078-1.0781 1.7695-0.76953 2.8984 0.37891 1.3516 1.0391 2.5508 1.8594 3.6602 2.2109 3.0117 4.8008 5.5898 8.1797 7.2383 0.78125 0.39062 1.7109 0.51172 2.5781 0.66016 0.55078 0.10938 1.0391-0.16016 1.4414-0.57031 0.57813-0.60938 1.1797-1.1992 1.7812-1.7812 1.4414-1.4219 3.5-1.4688 4.9492-0.078125 1.5391 1.4688 3.0312 2.9883 4.5195 4.5195 0.69922 0.71094 0.94922 1.4492 0.94922 2.1016 0.019531 1.2617-0.28906 2.0781-0.94141 2.7383z"/>
</svg>