<svg fill="#2E9BDB" xmlns="http://www.w3.org/2000/svg" version="1.1" viewBox="0 0 90.0 90.0">
 <g>
  <path d="m38.559 80.66c4.1211 0 8.082-1.1719 11.465-3.3828 3.4141-2.2617 7.3125-3.0781 10.793-2.2461 1.2344 0.30469 2.4688 0.44922 3.6719 0.44922 7.9531 0 14.434-6.0469 14.434-13.469 0-7.4258-6.4766-13.469-14.434-13.469-1.2344 0-2.4688 0.14453-3.6562 0.43359-3.4648 0.85156-7.375 0.046876-10.824-2.2305-2.0352-1.3477-4.2812-2.293-6.6367-2.8398v7.0547c0 2.6445-2.1641 4.8125-4.8125 4.8125-2.375 0-4.3438-1.7148-4.7461-3.9766h-2.2773c-0.38672 2.2617-2.3555 3.9766-4.7305 3.9766-2.4219 0-4.4414-1.8125-4.7617-4.168-2.1797 3.0312-3.4141 6.6562-3.4141 10.406-0.003906 10.277 8.9453 18.648 19.93 18.648zm25.625-21.809h5.9648c0.88281 0 1.6055 0.72266 1.6055 1.6055 0 0.89844-0.72266 1.6055-1.6055 1.6055h-5.9648c-0.89844 0-1.6055-0.70703-1.6055-1.6055 0-0.88281 0.70703-1.6055 1.6055-1.6055zm-12.461 5.5977h5.9648c0.88281 0 1.6055 0.72266 1.6055 1.6055 0 0.89844-0.72266 1.6055-1.6055 1.6055h-5.9648c-0.89844 0-1.6055-0.70703-1.6055-1.6055 0.003906-0.88672 0.70703-1.6055 1.6055-1.6055zm-9.2188-7.0391h5.9648c0.88281 0 1.6055 0.72266 1.6055 1.6055s-0.72266 1.6055-1.6055 1.6055h-5.9648c-0.89844 0-1.6055-0.72266-1.6055-1.6055 0-0.88672 0.70703-1.6055 1.6055-1.6055zm-13.727 4.2461h5.9648c0.88281 0 1.6055 0.72266 1.6055 1.6055 0 0.88281-0.72266 1.6055-1.6055 1.6055h-5.9648c-0.88281 0-1.6055-0.72266-1.6055-1.6055 0-0.88281 0.72266-1.6055 1.6055-1.6055z"/>
  <path d="m65.066 41.23c-1.8438 0-3.6562 0.22266-5.4219 0.65625-0.40234 0.082031-0.85156 0.14453-1.3008 0.14453-1.4258 0-3.0469-0.54688-4.5391-1.5391-3.1758-2.0703-6.7188-3.4961-10.438-4.168v4.3281c2.9844 0.57812 5.8359 1.7305 8.4023 3.4141 2.7109 1.7812 5.6758 2.4375 8.2891 1.7969 1.4414-0.35156 2.9336-0.52734 4.4258-0.52734 9.7344 0 17.641 7.4727 17.641 16.676s-7.9062 16.676-17.641 16.676c-1.4609 0-2.9492-0.17578-4.4258-0.52734-2.6133-0.64062-5.582 0.015625-8.2734 1.7969-3.9297 2.5664-8.4844 3.9141-13.23 3.9141-12.75 0-23.141-9.8125-23.141-21.855 0-5.7578 2.4219-11.227 6.5742-15.25v-5.8359c-6.832 4.7461-11.273 12.426-11.273 21.086 0 14.414 12.332 26.137 27.469 26.137 5.6289 0 11.016-1.5859 15.617-4.6328 1.4922-0.97656 3.1094-1.5234 4.5391-1.5234 0.44922 0 0.89844 0.046875 1.3008 0.14453 1.7656 0.43359 3.5742 0.65625 5.4219 0.65625 11.996 0 21.762-9.332 21.762-20.781 0-11.469-9.7656-20.785-21.758-20.785z"/>
  <path d="m73.965 39.609v-8.8359h2.5977c-0.19141-8.1289-3.7188-14.914-5.6602-18.055-1.957 3.1445-5.4844 9.9258-5.6758 18.055h2.5977v7.4102c2.1484 0.20703 4.1992 0.70312 6.1406 1.4258z"/>
  <path d="m26.805 52.562c0.88672 0 1.6055-0.71875 1.6055-1.6055v-2.3711h8.543v2.3711c0 0.88672 0.71875 1.6055 1.6055 1.6055 0.88672 0 1.6055-0.71875 1.6055-1.6055l-0.003906-19.961c0-1.1641 0.94922-2.1094 2.1094-2.1094 1.1641 0 2.1094 0.94922 2.1094 2.1094v0.27734c0 0.88672 0.71875 1.6055 1.6055 1.6055s1.6055-0.71875 1.6055-1.6055v-0.27734c0-2.9336-2.3867-5.3164-5.3164-5.3164-2.9336 0-5.3164 2.3867-5.3164 5.3164v3.8555h-8.543v-3.8555c0-1.1641 0.94922-2.1094 2.1094-2.1094 1.1641 0 2.1094 0.94922 2.1094 2.1094v0.27734c0 0.88672 0.71875 1.6055 1.6055 1.6055s1.6055-0.71875 1.6055-1.6055v-0.27734c0-2.9336-2.3867-5.3164-5.3164-5.3164-2.9336 0-5.3164 2.3867-5.3164 5.3164v19.961c-0.007813 0.88672 0.70703 1.6055 1.5938 1.6055zm1.6055-14.504h8.543v2.1172h-8.543zm0 5.3242h8.543v1.9961h-8.543z"/>
  <path d="m67.664 11.852c-8.6289 1.5234-15.152 9.0586-15.152 18.105v0.81641h9.5078c0.16016-8.3242 3.4297-15.203 5.6445-18.922z"/>
  <path d="m83.891 16.949c-2.5977-2.5977-5.9805-4.4258-9.7656-5.0977 2.2148 3.7188 5.4844 10.598 5.6445 18.922h9.5078v-0.81641c0-5.0703-2.0508-9.6719-5.3867-13.008z"/>
 </g></svg>