<svg fill="white" xmlns="http://www.w3.org/2000/svg" xmlns:xlink="http://www.w3.org/1999/xlink" xmlns:xodm="http://www.corel.com/coreldraw/odm/2003" xml:space="preserve" version="1.1" style="shape-rendering:geometricPrecision;text-rendering:geometricPrecision;image-rendering:optimizeQuality;" viewBox="0 0 8.4666 8.4666" x="0px" y="0px" fill-rule="evenodd" clip-rule="evenodd"><defs><style type="text/css">
   
    .fil0 {fill:white;fill-rule:nonzero}
   
  </style></defs><g><path class="fil0" d="M6.7155 7.5067l-0.6766 0.0005 0 0.3646c0,0.0238 0.0099,0.0456 0.0256,0.0613 0.0156,0.0156 0.0374,0.0255 0.0612,0.0255l0.5031 0c0.0237,0 0.0455,-0.0099 0.0612,-0.0256 0.0156,-0.0156 0.0255,-0.0374 0.0255,-0.0612l0 -0.3651zm-4.288 0l-0.6765 0.0005 0 0.3646c0,0.0238 0.0099,0.0456 0.0255,0.0612 0.0157,0.0157 0.0375,0.0256 0.0612,0.0256l0.5031 0c0.024,0 0.0457,-0.0098 0.0614,-0.0253 0.0155,-0.0157 0.0253,-0.0375 0.0253,-0.0615l0 -0.3651zm-0.6053 -2.2793l4.8222 0c0.0467,0 0.0847,0.038 0.0847,0.0847l0 1.5405c0,0.0467 -0.038,0.0847 -0.0847,0.0847l-4.8222 0c-0.0467,0 -0.0847,-0.038 -0.0847,-0.0847l0 -1.5405c0,-0.0467 0.038,-0.0847 0.0847,-0.0847zm4.7375 0.1694l-4.6528 0 0 1.3711 4.6528 0 0 -1.3711zm-4.7375 -2.3295l4.8222 0c0.0467,0 0.0847,0.038 0.0847,0.0847l0 1.5406c0,0.0467 -0.038,0.0847 -0.0847,0.0847l-4.8222 0c-0.0467,0 -0.0847,-0.038 -0.0847,-0.0847l0 -1.5406c0,-0.0467 0.038,-0.0847 0.0847,-0.0847zm4.7375 0.1694l-4.6528 0 0 1.3712 4.6528 0 0 -1.3712zm-4.7375 -2.329l4.8222 0c0.0467,0 0.0847,0.038 0.0847,0.0847l0 1.5405c0,0.0467 -0.038,0.0847 -0.0847,0.0847l-4.8222 0c-0.0467,0 -0.0847,-0.038 -0.0847,-0.0847l0 -1.5405c0,-0.0467 0.038,-0.0847 0.0847,-0.0847zm4.7375 0.1694l-4.6528 0 0 1.3711 4.6528 0 0 -1.3711zm0.311 -0.5691l-5.2748 0c-0.071,0 -0.1357,0.0291 -0.1825,0.0757 -0.0466,0.0468 -0.0757,0.1115 -0.0757,0.1825l0 6.3128c0,0.071 0.0291,0.1358 0.0757,0.1826 0.0468,0.0466 0.1115,0.0757 0.1825,0.0757l5.2748 0c0.071,0 0.1357,-0.0291 0.1825,-0.0757 0.0466,-0.0468 0.0757,-0.1116 0.0757,-0.1826l0 -6.3128c0,-0.071 -0.0291,-0.1357 -0.0757,-0.1825 -0.0468,-0.0466 -0.1115,-0.0757 -0.1825,-0.0757z"/></g></svg>