<svg fill="#ffffff" xmlns="http://www.w3.org/2000/svg" xmlns:xlink="http://www.w3.org/1999/xlink" version="1.1" x="0px" y="0px" viewBox="-5.0 -5.0 110.0 110.0" style="enable-background:new 0 0 100 100;" xml:space="preserve"><g><path d="M84.263,6H15.737c-1.963,0-3.555,1.592-3.555,3.555v80.89c0,1.964,1.592,3.555,3.555,3.555h68.526   c1.963,0,3.555-1.592,3.555-3.555V9.555C87.818,7.592,86.226,6,84.263,6z M38.656,12.724c2.928,0,5.301,2.373,5.301,5.301   s-2.374,5.301-5.301,5.301c-2.928,0-5.301-2.373-5.301-5.301S35.728,12.724,38.656,12.724z M18.744,18.025   c0-2.928,2.373-5.301,5.301-5.301s5.301,2.373,5.301,5.301s-2.374,5.301-5.301,5.301S18.744,20.953,18.744,18.025z M74.962,55.924   c0,13.786-11.176,24.962-24.962,24.962S25.038,69.71,25.038,55.924v0c0-13.786,11.176-24.962,24.962-24.962   S74.962,42.138,74.962,55.924L74.962,55.924z"/><path d="M28.096,55.924L28.096,55.924c0,12.098,9.807,21.904,21.904,21.904l0,0c12.098,0,21.904-9.807,21.904-21.904v0   c0-12.097-9.548,3.278-24.771,3.278C31.908,59.202,28.096,43.827,28.096,55.924z"/></g></svg>